<?xml version="1.0" encoding="UTF-8"?>
<svg xmlns="http://www.w3.org/2000/svg" version="1.1" viewBox="0 0 220 209">
  <defs>
    <style>
      .cls-1 {
        fill: #fff;
      }
    </style>
  </defs>
  <!-- Generator: Adobe Illustrator 28.6.0, SVG Export Plug-In . SVG Version: 1.2.0 Build 709)  -->
  <g>
    <g id="Layer_1">
      <g>
        <path class="cls-1" d="M121,8.7c-4,6.1-4.5,7.4-4.4,12.3.4,22.2,2.4,74.4,3,78.4l.7,4.8-7.4-.7c-9.8-.9-31.2-4.8-47.4-8.7-7.1-1.6-18.5-4.3-25.1-5.9-11.1-2.6-36.7-7.9-38.2-7.9s12.2,13.1,15.5,15.1c4.2,2.6,8.7,3.3,48.3,6.9,44.3,4.1,49.1,4.7,50.2,5.8s-13.4,23.3-33,48.5c-11.4,14.6-19.4,28.6-21.6,38l-.7,2.9,5.2-2.9c8.7-4.8,12.9-9.7,19.2-22.8,6.5-13.3,7.9-15.7,25-43.3,6.5-10.6,12.3-19.2,12.9-19,1.5.5,17.1,30.7,27.2,52.6,9.5,20.5,15.9,31.2,22.5,37.7l4.1,3.9v-6c0-9.6-7.4-23.7-36.2-69.3-7.1-11.2-12.7-20.6-12.3-20.9,1-1.1,42.2-11.1,56-13.6,16.3-3.1,25.7-5.8,30.5-8.8,3.4-2.2,3.5-2.2,1-2.6-1.4-.1-4.6-1-7.2-1.9l-4.7-1.7-35.8,11.8c-19.7,6.4-37.6,11.8-39.8,11.9l-4,.2v-16c.2-8.8,1.3-25.2,2.5-36.5,2.3-21.5,2.3-33.3-.2-43.8l-1.3-5.3-4.5,6.8Z"/>
        <path class="cls-1" d="M88.2,18.2c-2.7,9.8-2.8,13.8-.5,18.5,1.7,3.7,10.4,11.3,12.9,11.3s1.7.7,2,1.5c.8,2,2.4,1.9,2.4-.1s1-4.7,2.1-8.6c2.8-9,2.2-14.8-1.7-19-2.7-2.8-13.8-11.8-14.6-11.8s-1.4,3.7-2.6,8.2Z"/>
        <path class="cls-1" d="M167.9,22.9c-1.9,2.1-3.8,3.1-7.3,3.6-9.5,1.5-18.3,11.4-23.2,26.2-2.2,6.9-2.6,9.4-2.2,15.5.7,9.1,5.5,21.2,7.8,19.8.8-.6,3.9-1,6.9-1,10,0,17.8-5.8,22.8-16.7,3.7-8.1,4-16.4,1-32.3-1.4-7.4-2.7-14.5-2.9-15.8q-.3-2.3-2.9.7Z"/>
        <path class="cls-1" d="M41.5,40.7c.8,2.1,1.9,7.7,2.4,12.5.7,5.9,1.8,10.3,3.6,13.9,7.8,15.3,28.7,25.7,48.6,24.2,4.7-.3,8.3-.1,9.6.5,1.9,1,2,.8,2.3-3.1.9-15.4-.6-19.8-10.2-28.9-10.6-10-31.1-18.8-44-18.8s-6.6-.8-9-2c-2.3-1.1-4.3-2-4.5-2s.4,1.7,1.2,3.7Z"/>
        <path class="cls-1" d="M203,54.7c-13.8,2.2-19.2,5.3-20.5,11.6-.4,1.8-.8,3.9-1.1,4.7-.6,2.3,10.9,1,17-2,4.7-2.3,6.5-4.8,9-12.8.8-2.3.6-2.3-4.4-1.5Z"/>
        <path class="cls-1" d="M171.6,103.1c-6.3,1-10,2.5-16.1,6.6-2.7,1.8-5.6,3.3-6.3,3.3-1,0-1,.5.2,2.2.9,1.2,1.6,3.9,1.6,5.9s.8,4.7,2.7,7c7.2,8.5,22.7,10.5,38.3,4.8,4.7-1.8,12-4.3,16.2-5.8,8-2.7,9.1-3.5,5.9-4.4-1-.2-3.7-3.6-6-7.5-3.8-6.6-4.5-7.2-9.8-9.2-3.1-1.1-8.8-2.5-12.7-3-8-1.1-7.4-1.1-14,.1Z"/>
        <path class="cls-1" d="M25.7,110.9c-2.9,2.7-4.9,5.2-4.6,5.5.9,1,12.3,3.6,15.4,3.6s11.5-3.4,11.5-4.8.9-1.8,2.1-3.1c1.2-1.2,1.9-2.3,1.8-2.5-1.9-1.2-12.6-3.6-16.3-3.6s-5.2.4-9.9,4.9Z"/>
        <path class="cls-1" d="M66.1,115.1c-9.9,1.9-16.7,8.2-29.5,27.1l-8.6,12.8h3.8c2,0,6.2,1.2,9.2,2.6,9.6,4.5,20.6,3.1,33-4.2,7.6-4.4,15.2-12.7,17.4-18.9,1-2.8,2.3-6.1,3-7.5,1.3-2.8.6-3.4-10.9-8.9-7.1-3.4-11.4-4.2-17.4-3Z"/>
        <path class="cls-1" d="M119.3,142.4c-6.4,6.4-8.4,10.4-9.1,18.1-.7,9.7,1.7,16,11.9,31.3,4.9,7.3,8.9,13.9,8.9,14.5.1.7.7-.4,1.3-2.3.7-1.9,3-5.6,5-8.3,5.7-7.5,6.9-14.7,4.7-30.2-.9-5.8-1.8-8.1-5.5-13.5-2.5-3.6-6.2-8.4-8.3-10.6l-3.7-4.2-5.2,5.2Z"/>
        <path class="cls-1" d="M167.5,147.9c.3.9,1.2,4.3,2,7.6,3,11.2,9,17.6,17.3,18.1,2.6.2,7.1.5,10,.7q5.3.4,4.7-2.2c-1.3-5.3-5.8-15.7-8.2-18.9-3.8-5.1-7.6-6.6-17.6-6.7-7.6-.2-8.7,0-8.2,1.4Z"/>
        <path class="cls-1" d="M97.9,175.3c-6.4,7.3-8.2,11.2-7.6,16.5.2,2.6,1,6,1.6,7.6l1.2,2.9,5-4.9c5.9-5.7,8.9-11,8.9-15.5s-3-10.9-4.5-10.8c-.5.1-2.6,2-4.6,4.2Z"/>
      </g>
    </g>
  </g>
</svg>