<?xml version="1.0" encoding="UTF-8"?>
<svg xmlns="http://www.w3.org/2000/svg" version="1.1" viewBox="0 0 30 37">
  <defs>
    <style>
      .cls-1 {
        fill: #fff;
      }
    </style>
  </defs>
  <!-- Generator: Adobe Illustrator 28.6.0, SVG Export Plug-In . SVG Version: 1.2.0 Build 709)  -->
  <g>
    <g id="Layer_1">
      <path class="cls-1" d="M27.9,28.2c0-1.2-.3-2.3-.8-3.2,0,0-.2,0-.3,0-.8,2.6-2.4,4.9-4.5,6.5-.1,0-.2,0-.3,0-.4.1-.9.2-1.3.2-2.6,0-4.7-2.2-4.6-4.8,0-2.6,2.2-4.7,4.8-4.7.4,0,.8,0,1.2.2,0,0,0,0,0,0-.5-.4-1-.8-1.6-1.1,0,0,0,0,0,0-.1,0-.4-.2-.6-.3-3.7.4-6.6,3.5-6.6,7.2s3.2,7.2,7.2,7.3c3-1.2,5.5-3.3,7.2-6.1,0-.4.1-.8.1-1.2M17.1,36.4c.7,0,1.4-.2,2.1-.4-3.6-.7-6.4-3.9-6.4-7.7s2.9-7.1,6.6-7.8c.1-.1.2-.2.3-.3.2-.2.3-.4.5-.7-4.8,0-8.6,4-8.6,8.8s2.3,6.9,5.5,8.2ZM28.3,24.6c-.2,0-.4.2-.5.2.5,1,.7,2.1.8,3.2.2-.4.3-.7.5-1.1-.1-.8-.3-1.6-.7-2.3ZM29.8,23.6c-.3.3-.6.5-.9.7.2.4.3.9.5,1.3.2-.7.3-1.3.4-2h0ZM29.9,22.9c0-.4,0-.8,0-1.2,0-7.6-5.7-13.9-13.1-14.7.1.2.2.3.3.5,1.5,2.6-.7,5.6-.8,5.6-1.9-.5-3.5-1.6-4.2-3.2-.4-.8-.5-1.7-.4-2.6C6.4,8.5,2.1,12.7.8,18c.5-.1,1.1-.2,1.8,0,.3,0,.6.1.9.3.8-2.6,2.4-4.9,4.5-6.4,0,0,0,0,0,0h0c.5-.2,1-.3,1.6-.3,2.6,0,4.7,2.2,4.7,4.9,0,2.7-2.2,4.8-4.8,4.7-.4,0-.8,0-1.2-.2.8.7,1.8,1.3,2.8,1.6-1.4,1.3-2.2,3.3-2.2,5.4s.2,2,.5,2.9c.3.7.7,1.4,1.1,2-4.3-1.8-7.4-5.9-7.6-10.8-.4,0-.8,0-1.3,0-.5-.1-1-.4-1.4-.7,0,.1,0,.2,0,.3,0,8.2,6.7,14.8,14.8,14.8s.3,0,.4,0c-2.9-1.6-4.8-4.7-4.8-8.3,0-5.3,4.3-9.5,9.5-9.5s.2,0,.3,0c.5-1.1.8-2.3.8-3.6s-.6-3.4-1.5-4.6c3.9,1.7,6.8,5.4,7.3,9.8,1.1.3,2.1,1.2,2.7,2.6"/>
      <path class="cls-1" d="M3.5,24c1.1,1.1,2.4,1.6,3.7,1.3,1.2-.3,2.2-1.2,2.7-2.5,0,0,0,0,0-.1-1.1-1-2.4-1.5-3.7-1.2-2.2.5-2.8,2.6-2.8,2.5Z"/>
      <path class="cls-1" d="M4.7,16.1c-.2,1.5.3,2.9,1.3,3.7,1,.8,2.3,1,3.6.6,0,0,0,0,0-.1.1-1.5-.3-2.8-1.3-3.6-1.8-1.4-3.7-.6-3.7-.6"/>
      <path class="cls-1" d="M11.7,19.3c1.1-1,1.8-2.3,1.6-3.6-.2-1.2-1-2.2-2.2-2.9,0,0,0,0-.1,0-1.1,1-1.7,2.3-1.5,3.6.4,2.2,2.3,3,2.3,3"/>
      <path class="cls-1" d="M19.6,0c-1.5.4-2.7,1.3-3.1,2.6-.4,1.2-.2,2.5.6,3.7,0,0,2.6-.5,3.1-2.5C20.8,1.6,19.6,0,19.6,0"/>
      <path class="cls-1" d="M19.6,22.6c-.4,1.5-.1,2.9.8,3.9.8.9,2.1,1.3,3.5,1.1,0,0,0,0,0,0,.3-1.4,0-2.8-.8-3.8-1.6-1.6-3.6-1.1-3.6-1.1"/>
      <path class="cls-1" d="M20.5,20.5c1.4.7,2.8.7,4,0,1.1-.6,1.7-1.8,1.8-3.2,0,0-2.3-1.3-3.9,0-1.8,1.3-1.8,3.3-1.8,3.3"/>
      <path class="cls-1" d="M23.1,22.1c.7,1.2,1.7,2.1,2.9,2.2,1.1.1,2.3-.4,3.1-1.3,0,0-1-2.2-2.9-2.2-2.1,0-3.2,1.4-3.2,1.3"/>
      <path class="cls-1" d="M13.5,5.7c-.8,1.3-1.1,2.8-.5,4,.5,1.2,1.6,1.9,3,2.3,0,0,1.6-2.1.6-4-1.1-2-3.1-2.3-3-2.3Z"/>
      <path class="cls-1" d="M0,19.5c.4,1,1.2,1.7,2.2,1.9.9.2,1.8-.2,2.5-.9,0,0,0,0,0,0-.5-1-1.2-1.7-2.1-1.8C1,18.3,0,19.5,0,19.5"/>
    </g>
  </g>
</svg>