<svg width="40" viewBox="0 0 150 150" xmlns="http://www.w3.org/2000/svg" height="40" class="BanyanTreeFooter-whiteSvgIcon"><path d="M72.153 51.514c2.07 2.07 1.866 6.8.65 10.589a1.068 1.068 0 001.59 1.227c3.144-1.993 8.21-4.549 13.456-4.491 8.58.093 7.549 8.439 7.174 10.408-.232.995-.56 1.965-.98 2.897a2.019 2.019 0 001.45 2.773 19.436 19.436 0 015.58 2.021c3.796 2.156 5.421 8.166 4.077 12.376-1.854 5.814-6.181 12.07-16.063 17.212-6.464 3.361-15.06 6.121-24.2 6.121-30.4 0-32.856-19.053-32.856-22.968 0-11.744 10.764-28.38 20.55-34.251 9.786-5.872 15.658-7.83 19.572-3.914zM64.14 72.377c-14.586 1.019-25.86 9.71-25.182 19.411.678 9.7 13.052 16.739 27.638 15.719 14.586-1.02 25.86-9.71 25.182-19.411-.678-9.701-13.052-16.74-27.638-15.72zm13.166 16.298c1.446 6.52-3.52 13.168-11.094 14.847-7.573 1.678-14.883-2.247-16.329-8.769-1.445-6.521 3.522-13.169 11.094-14.847 7.573-1.679 14.883 2.247 16.329 8.769zm-20.02 1.756c-2.256 1.121-3.219 3.772-2.15 5.92 1.068 2.149 3.763 2.98 6.018 1.859 2.256-1.122 3.219-3.773 2.15-5.92-1.068-2.149-3.762-2.981-6.018-1.86zm8.901-2.099c-.963.479-1.398 1.562-.972 2.418.426.857 1.552 1.163 2.515.684.962-.478 1.398-1.561.972-2.418-.426-.857-1.553-1.163-2.515-.684zm46.43-42.264c5.628 7.197 6.254 16.6 4.454 22.292a3.132 3.132 0 01-5.972-1.888c1.33-4.203.584-11.431-3.416-16.546-3.59-4.593-8.99-6.696-16.048-6.253a3.132 3.132 0 11-.392-6.25c11.51-.724 17.978 4.302 21.374 8.645zm-9.084 7.18c2.974 3.68 3.334 8.707 2.411 11.82a2.838 2.838 0 01-5.441-1.615c.443-1.496.307-4.544-1.384-6.638-1.333-1.65-3.437-2.377-6.256-2.161a2.838 2.838 0 11-.433-5.66c5.966-.457 9.333 2.062 11.103 4.255z" fill="currentColor" fill-rule="nonzero"></path></svg>