<svg width="40" viewBox="0 0 150 150" xmlns="http://www.w3.org/2000/svg" height="40" class="BanyanTreeFooter-whiteSvgIcon"><path d="M53.74 112.11H37.027V59.663H53.74v52.445zm-8.357-59.315a9.404 9.404 0 110-18.808 9.404 9.404 0 010 18.808zm68.64 59.314H97.617V83.433c0-1.457.23-11.118-7.974-11.118A9.067 9.067 0 0082.119 76a11.465 11.465 0 00-2.29 6.972v29.136H63.442V59.664h15.591v7.36c3.732-5.724 8.434-7.82 13.06-8.663 8.211-1.498 21.929 3.501 21.929 18.427l.001 35.321z" fill="currentColor" fill-rule="nonzero"></path></svg>