<?xml version="1.0" encoding="UTF-8"?>
<svg xmlns="http://www.w3.org/2000/svg" version="1.1" viewBox="0 0 40 40">
  <defs>
    <style>
      .cls-1 {
        fill: #fff;
      }
    </style>
  </defs>
  <!-- Generator: Adobe Illustrator 28.6.0, SVG Export Plug-In . SVG Version: 1.2.0 Build 709)  -->
  <g>
    <g id="Layer_1">
      <path class="cls-1" d="M24.6,17.1c3.8,0,6.9,2.6,6.9,5.7s-.9,3.2-2.3,4.3c-.2.1-.3.4-.2.6l.3,1.2c0,.1,0,.3-.2.3,0,0-.1,0-.2,0l-1.5-.9c-.2,0-.3-.1-.5,0-.8.2-1.6.3-2.4.3-3.8,0-6.9-2.6-6.9-5.7s3.1-5.7,6.9-5.7ZM16.8,10.7c4.1,0,7.6,2.5,8.2,5.8-.1,0-.3,0-.4,0-4.1,0-7.5,2.8-7.5,6.3s0,1.1.3,1.6c-.2,0-.3,0-.5,0-1,0-1.9-.1-2.9-.4-.2,0-.4,0-.6,0l-1.9,1.2c-.1,0-.3,0-.3,0,0,0,0-.1,0-.2l.4-1.6c0-.3,0-.6-.3-.7-1.7-1.3-2.8-3.1-2.8-5.2,0-3.8,3.7-6.9,8.3-6.9ZM22.3,20.1c-.5,0-1,.4-1,1s.4,1,1,1,1-.4,1-1-.4-1-1-1ZM26.9,20.1c-.5,0-1,.4-1,1s.4,1,1,1,1-.4,1-1-.4-1-1-1h0ZM19.2,14.3c-.6.2-.9.9-.6,1.5s.9.9,1.5.6c0,0,0,0,0,0,.6-.2.9-.9.6-1.5-.2-.6-.9-.9-1.5-.6h0ZM14.1,14.2c-.6,0-1.1.5-1.1,1.1s.5,1.1,1.1,1.1,1.1-.5,1.1-1.1-.5-1.1-1.1-1.1h0Z"/>
    </g>
  </g>
</svg>