<?xml version="1.0" encoding="utf-8"?>
<!-- Generator: Adobe Illustrator 16.0.0, SVG Export Plug-In . SVG Version: 6.00 Build 0)  -->
<!DOCTYPE svg PUBLIC "-//W3C//DTD SVG 1.1//EN" "http://www.w3.org/Graphics/SVG/1.1/DTD/svg11.dtd">
<svg version="1.1" id="Layer_1" xmlns="http://www.w3.org/2000/svg" xmlns:xlink="http://www.w3.org/1999/xlink" x="0px" y="0px"
	 width="860px" height="1080px" viewBox="0 0 860 1080" enable-background="new 0 0 860 1080" xml:space="preserve">
<path fill="#FFFFFF" d="M301,196c23.784,0,43,19.216,43,43v43h172v-43c0-23.784,19.216-43,43-43s43,19.216,43,43v43h43
	c47.435,0,86,38.565,86,86v387c0,47.435-38.565,86-86,86H215c-47.435,0-86-38.565-86-86V368c0-47.435,38.565-86,86-86h43v-43
	C258,215.216,277.216,196,301,196z M215,518.5v43c0,11.825,9.675,21.5,21.5,21.5h43c11.825,0,21.5-9.675,21.5-21.5v-43
	c0-11.825-9.675-21.5-21.5-21.5h-43C224.675,497,215,506.675,215,518.5z M387,518.5v43c0,11.825,9.675,21.5,21.5,21.5h43
	c11.825,0,21.5-9.675,21.5-21.5v-43c0-11.825-9.675-21.5-21.5-21.5h-43C396.675,497,387,506.675,387,518.5z M580.5,497
	c-11.825,0-21.5,9.675-21.5,21.5v43c0,11.825,9.675,21.5,21.5,21.5h43c11.825,0,21.5-9.675,21.5-21.5v-43
	c0-11.825-9.675-21.5-21.5-21.5H580.5z M215,690.5v43c0,11.825,9.675,21.5,21.5,21.5h43c11.825,0,21.5-9.675,21.5-21.5v-43
	c0-11.825-9.675-21.5-21.5-21.5h-43C224.675,669,215,678.675,215,690.5z M408.5,669c-11.825,0-21.5,9.675-21.5,21.5v43
	c0,11.825,9.675,21.5,21.5,21.5h43c11.825,0,21.5-9.675,21.5-21.5v-43c0-11.825-9.675-21.5-21.5-21.5H408.5z M559,690.5v43
	c0,11.825,9.675,21.5,21.5,21.5h43c11.825,0,21.5-9.675,21.5-21.5v-43c0-11.825-9.675-21.5-21.5-21.5h-43
	C568.675,669,559,678.675,559,690.5z"/>
</svg>
