<?xml version="1.0" encoding="UTF-8"?>
<svg xmlns="http://www.w3.org/2000/svg" version="1.1" viewBox="0 0 40 40">
  <defs>
    <style>
      .cls-1 {
        fill: #fff;
      }
    </style>
  </defs>
  <!-- Generator: Adobe Illustrator 28.6.0, SVG Export Plug-In . SVG Version: 1.2.0 Build 709)  -->
  <g>
    <g id="Layer_1">
      <path class="cls-1" d="M24.4,9.6c3.3,0,6,2.7,6,6v8.8c0,3.3-2.7,6-6,6h-8.8c-3.3,0-6-2.7-6-6v-8.8c0-3.3,2.7-6,6-6h8.8ZM24.6,11.5h-9.2c-2.1,0-3.9,1.7-3.9,3.9v9.2c0,2.1,1.7,3.9,3.9,3.9h9.2c2.1,0,3.9-1.7,3.9-3.9v-9.2c0-2.1-1.7-3.9-3.9-3.9ZM20,14.7c3,0,5.3,2.4,5.3,5.3s-2.4,5.3-5.3,5.3h0c-3,0-5.3-2.4-5.3-5.3s2.4-5.3,5.3-5.3ZM20,16.5c-1.9,0-3.5,1.6-3.5,3.5s1.6,3.5,3.5,3.5,3.5-1.6,3.5-3.5-1.6-3.5-3.5-3.5ZM26.1,13.3c.6.3,1,1,.7,1.7-.3.6-1,1-1.7.7,0,0,0,0,0,0-.6-.3-1-1-.7-1.7.3-.6,1-1,1.7-.7Z"/>
    </g>
  </g>
</svg>