<svg width="40" viewBox="0 0 150 150" xmlns="http://www.w3.org/2000/svg" height="40" class="BanyanTreeFooter-whiteSvgIcon"><path d="M91.553 35.938c12.431 0 22.51 10.078 22.51 22.51v33.105c0 12.431-10.079 22.51-22.51 22.51H58.447c-12.431 0-22.51-10.079-22.51-22.51V58.447c0-12.431 10.079-22.51 22.51-22.51h33.106zm.661 7.282H57.786A14.566 14.566 0 0043.22 57.786v34.428a14.566 14.566 0 0014.566 14.566h34.428c8.044 0 14.565-6.522 14.565-14.566V57.786A14.566 14.566 0 0092.214 43.22zM75 54.964c11.066 0 20.036 8.97 20.036 20.036A20.036 20.036 0 0175 95.036c-11.066 0-20.036-8.97-20.036-20.036S63.934 54.964 75 54.964zm0 7.012c-7.193 0-13.024 5.831-13.024 13.024 0 7.193 5.831 13.024 13.024 13.024 7.193 0 13.024-5.831 13.024-13.024 0-7.193-5.831-13.024-13.024-13.024zm22.696-12.09a4.767 4.767 0 11-3.649 8.808 4.767 4.767 0 013.649-8.808z" fill="currentColor" fill-rule="nonzero"></path></svg>