<svg width="40" viewBox="0 0 150 150" xmlns="http://www.w3.org/2000/svg" height="40" class="BanyanTreeFooter-whiteSvgIcon"><path d="M75 37.794c22.652 0 41.016 14.973 41.016 33.443 0 12.685-8.344 21.226-19.803 30.368-10.957 8.742-18.705 12.703-22.66 14.374a1.648 1.648 0 01-2.253-1.857c.41-2 .715-4.02.914-6.052a3.645 3.645 0 00-3.166-3.985c-19.626-2.513-35.064-16.176-35.064-32.848 0-18.47 18.364-33.443 41.016-33.443zm11.42 24.433h-2.835a.788.788 0 00-.787.787v10.752l-8.27-11.074a1.156 1.156 0 00-.925-.464h-2.62a.787.787 0 00-.787.787V80.9c0 .435.353.787.787.787h2.835a.788.788 0 00.788-.787V70.248l8.192 10.972c.218.292.56.464.925.464h2.697a.788.788 0 00.788-.788V63.013a.788.788 0 00-.788-.786zm15.852 0H90.817a.788.788 0 00-.788.787v17.884c0 .435.353.787.788.787h11.455a.788.788 0 00.787-.788v-2.835a.788.788 0 00-.787-.788H94.44v-3.115h7.832a.788.788 0 00.787-.787v-2.835a.788.788 0 00-.787-.788H94.44v-3.114h7.832a.788.788 0 00.787-.788v-2.834a.788.788 0 00-.787-.786zm-51.275-.002h-2.835a.787.787 0 00-.787.788v17.883c0 .435.352.788.787.788h11.455a.788.788 0 00.788-.788v-2.834a.788.788 0 00-.789-.788h-7.832V63.013a.787.787 0 00-.787-.788zm15.553 0h-2.834a.788.788 0 00-.788.788v17.883c0 .435.353.788.788.788h2.834a.787.787 0 00.788-.788V63.013a.787.787 0 00-.788-.788z" fill="currentColor" fill-rule="nonzero"></path></svg>