<?xml version="1.0" encoding="utf-8"?>
<!-- Generator: Adobe Illustrator 16.0.0, SVG Export Plug-In . SVG Version: 6.00 Build 0)  -->
<!DOCTYPE svg PUBLIC "-//W3C//DTD SVG 1.1//EN" "http://www.w3.org/Graphics/SVG/1.1/DTD/svg11.dtd">
<svg version="1.1" id="Layer_1" xmlns="http://www.w3.org/2000/svg" xmlns:xlink="http://www.w3.org/1999/xlink" x="0px" y="0px"
	 width="860px" height="1080px" viewBox="0 0 860 1080" enable-background="new 0 0 860 1080" xml:space="preserve">
<path fill="#FFFFFF" d="M129,325c0-23.784,19.216-43,43-43h516c23.784,0,43,19.216,43,43s-19.216,43-43,43H172
	C148.216,368,129,348.784,129,325z M129,540c0-23.784,19.216-43,43-43h516c23.784,0,43,19.216,43,43s-19.216,43-43,43H172
	C148.216,583,129,563.784,129,540z M731,755c0,23.784-19.216,43-43,43H172c-23.784,0-43-19.216-43-43s19.216-43,43-43h516
	C711.784,712,731,731.216,731,755z"/>
</svg>
