<svg width="40" viewBox="0 0 150 150" xmlns="http://www.w3.org/2000/svg" height="40" class="BanyanTreeFooter-whiteSvgIcon"><path d="M92.112 64.167c14.28 0 25.857 9.634 25.857 21.517 0 6.379-3.336 12.109-8.635 16.05a2.272 2.272 0 00-.84 2.382l1.173 4.617a.877.877 0 01-1.325.952l-5.454-3.522a2.28 2.28 0 00-1.903-.264 30.494 30.494 0 01-8.873 1.302c-14.28 0-25.856-9.634-25.856-21.517s11.576-21.517 25.856-21.517zM63.08 40.172c15.482 0 28.317 9.43 30.663 21.766a33.362 33.362 0 00-1.63-.041c-15.508 0-28.125 10.67-28.125 23.786 0 2.075.32 4.137.944 6.116-.614.03-1.23.047-1.852.047a36.598 36.598 0 01-10.723-1.584 2.583 2.583 0 00-2.158.3l-6.984 4.51a.877.877 0 01-1.325-.952l1.542-6.076a2.585 2.585 0 00-.967-2.715c-6.4-4.733-10.433-11.634-10.433-19.32 0-14.27 13.9-25.837 31.048-25.837zm20.39 35.025a3.576 3.576 0 100 7.153 3.576 3.576 0 000-7.153zm17.286 0a3.576 3.576 0 100 7.153 3.576 3.576 0 000-7.153zm-28.94-21.453a4.294 4.294 0 103.286 7.934 4.294 4.294 0 00-3.287-7.934zM52.7 53.417a4.294 4.294 0 100 8.588 4.294 4.294 0 000-8.588z" fill="currentColor" fill-rule="nonzero"></path></svg>