<?xml version="1.0" encoding="UTF-8"?>
<svg xmlns="http://www.w3.org/2000/svg" version="1.1" viewBox="0 0 32 32">
  <defs>
    <style>
      .cls-1 {
        fill: #fff;
      }

      .cls-2 {
        fill: #c19867;
      }
    </style>
  </defs>
  <!-- Generator: Adobe Illustrator 28.6.0, SVG Export Plug-In . SVG Version: 1.2.0 Build 709)  -->
  <g>
    <g id="Layer_1" focusable="false">
      <path class="cls-1" d="M30,0c1.1,0,2,.9,2,2v28c0,1.1-.9,2-2,2H2c-1.1,0-2-.9-2-2V2C0,.9.9,0,2,0h28Z"/>
      <path class="cls-2" d="M23.9,6c2.2,0,4,1.7,4.1,3.9v.2s0,9.8,0,9.8c0,2.2-1.7,4-3.9,4.1h-5.9l-1.9,3.3c-.1.2-.4.3-.6.2,0,0,0,0-.1,0h0c0,0-1.9-3.4-1.9-3.4h-5.6c-2.2,0-3.9-1.7-4.1-3.9v-.2s0-9.9,0-9.9c0-2.2,1.7-3.9,3.9-4.1h.2s15.9,0,15.9,0ZM21.9,13.2c-1.1,0-2,.9-2,2.1s.9,2.1,2,2.1.9-.1,1.2-.4v.6h0c0,0,0,.2,0,.2-.1.2-.4.4-.9.4v1.1h.2c.3,0,.9-.1,1.4-.6h.1c0-.1,0-.2,0-.2h.1c.1-.3.3-.6.3-.9v-4.3h-1.2v.3c-.4-.3-.8-.4-1.2-.4ZM8.8,11.9h-1.2v5.6h1.2v-.4c.4.3.8.5,1.3.5,1.1,0,2-1,2-2.2s-.9-2.2-2-2.2-.8.1-1.1.4h-.1c0,.1,0-1.7,0-1.7ZM17.1,13.2c-1.2,0-2.2,1-2.2,2.2s1,2.2,2.2,2.2,2.2-1,2.2-2.2-1-2.2-2.2-2.2ZM13.8,12.5c-.3-.4-.8-.7-1.3-.8h-.2v1.1h0c.1,0,.4.2.6.5h0v4.1h1.3v-4c0-.2-.1-.5-.2-.7h0c0-.1,0-.3,0-.3ZM9.8,14.3c.6,0,1.1.4,1.2,1,0,.6-.4,1.1-1,1.2,0,0-.1,0-.2,0-.6,0-1.1-.5-1.1-1.1,0,0,0,0,0,0,0-.1,0-.3.1-.4.2-.4.6-.7,1-.7ZM17.1,14.4c.6,0,1.1.5,1.1,1s-.5,1.1-1.1,1.1-1.1-.5-1.1-1.1.5-1,1.1-1ZM22.2,14.2c.4,0,.8.2,1,.6,0,.1.1.3.1.5s0,.3-.1.5c-.2.4-.6.6-1,.6-.6,0-1.1-.5-1.1-1.1,0,0,0,0,0,0,0-.6.5-1.1,1.1-1.1Z"/>
    </g>
  </g>
</svg>