<?xml version="1.0" encoding="UTF-8"?>
<svg xmlns="http://www.w3.org/2000/svg" version="1.1" viewBox="0 0 33.28 33.28">
  <!-- Generator: Adobe Illustrator 28.6.0, SVG Export Plug-In . SVG Version: 1.2.0 Build 709)  -->
  <g>
    <g id="Layer_1">
      <g>
        <path d="M8,12.72c-.57-1.29-1.56-2.34-2.9-2.52-5-.66-4.34,7.2-.36,8.22,1.53.39,3.1-.29,3.59-1.76.37-1.12.24-2.65-.33-3.94Z"/>
        <path d="M14.64,6.29c-.32-1.43-1.1-2.69-2.39-3.11-4.8-1.57-5.61,6.67-1.89,8.43,1.44.68,3.11.25,3.86-1.18.58-1.1.73-2.7.41-4.13Z"/>
        <path d="M24.75,8.02c.26-1.44.02-2.91-1-3.79-3.83-3.3-7.75,4-4.99,7.05,1.07,1.18,2.77,1.42,4.02.4.96-.79,1.71-2.21,1.97-3.65Z"/>
        <path d="M31.37,15.1c.5-1.38.53-2.86-.33-3.91-3.2-3.91-8.32,2.6-6.13,6.08.85,1.34,2.48,1.88,3.89,1.09,1.08-.61,2.07-1.88,2.57-3.26Z"/>
        <path d="M6.65,28.6s-.78-1.14-.88-2.45.59-3.52,2.02-4.92,2.97-3.23,4.4-5.25,2.35-2.45,4.01-2.54,3.33.55,5.14,3.46,1.71,2.61,3.89,4.66,1.83,5.22.91,6.68-2.25,2.05-4.21,2.05-3.13-1.36-5.28-1.24-4.01.78-4.01.78c0,0-4.43,1.47-6-1.24Z"/>
      </g>
    </g>
  </g>
</svg>