<?xml version="1.0" encoding="UTF-8"?>
<svg xmlns="http://www.w3.org/2000/svg" version="1.1" viewBox="0 0 32 32">
  <defs>
    <style>
      .cls-1 {
        fill: #fff;
      }
    </style>
  </defs>
  <!-- Generator: Adobe Illustrator 28.6.0, SVG Export Plug-In . SVG Version: 1.2.0 Build 709)  -->
  <g>
    <g id="Layer_1" focusable="false">
      <path class="cls-1" d="M9.8,1.1c-1.6,0-2.7.3-3.6.7-1,.4-1.8.9-2.7,1.7s-1.3,1.7-1.7,2.7c-.4,1-.6,2-.7,3.6,0,1.6,0,2.1,0,6.2,0,4.1,0,4.6.1,6.2,0,1.6.3,2.7.7,3.6.4,1,.9,1.8,1.7,2.7s1.7,1.3,2.7,1.7c1,.4,2,.6,3.6.7s2.1,0,6.2,0c4.1,0,4.6,0,6.2-.1s2.7-.3,3.6-.7c1-.4,1.8-.9,2.7-1.7s1.3-1.7,1.7-2.7c.4-1,.6-2,.7-3.6,0-1.6,0-2.1,0-6.2s0-4.6-.1-6.2c0-1.6-.3-2.7-.7-3.6-.4-1-.9-1.8-1.7-2.7s-1.7-1.3-2.7-1.7c-1-.4-2-.6-3.6-.7s-2.1,0-6.2,0c-4.1,0-4.6,0-6.2.1M10,28.2c-1.5,0-2.3-.3-2.8-.5-.7-.3-1.2-.6-1.7-1.1s-.9-1-1.1-1.7c-.2-.5-.5-1.3-.5-2.8,0-1.6,0-2.1,0-6.1s0-4.5,0-6.1c0-1.5.3-2.3.5-2.8.3-.7.6-1.2,1.1-1.7s1-.9,1.7-1.1c.5-.2,1.3-.5,2.8-.5,1.6,0,2.1,0,6.1,0s4.5,0,6.1,0c1.5,0,2.3.3,2.8.5.7.3,1.2.6,1.7,1.1s.9,1,1.1,1.7c.2.5.5,1.3.5,2.8,0,1.6,0,2.1,0,6.1,0,4,0,4.5,0,6.1,0,1.5-.3,2.3-.5,2.8-.3.7-.6,1.2-1.1,1.7s-1,.9-1.7,1.1c-.5.2-1.3.5-2.8.5-1.6,0-2.1,0-6.1,0s-4.5,0-6.1,0M22.2,8c0,.7.4,1.4,1.1,1.7s1.4.1,2-.4.7-1.3.4-2-.9-1.1-1.7-1.1c-1,0-1.8.8-1.8,1.8M8.3,16c0,4.3,3.5,7.7,7.7,7.7,4.3,0,7.7-3.5,7.7-7.7,0-4.3-3.5-7.7-7.7-7.7-4.3,0-7.7,3.5-7.7,7.7M11,16c0-2.8,2.2-5,5-5,2.8,0,5,2.2,5,5,0,2.8-2.2,5-5,5-1.3,0-2.6-.5-3.5-1.5s-1.5-2.2-1.5-3.5"/>
    </g>
  </g>
</svg>